 <svg 
 xmlns="http://www.w3.org/2000/svg"
 xmlns:xlink="http://www.w3.org/1999/xlink"
 width="119px" height="20px">
<path xmlns="http://www.w3.org/2000/svg" fill-rule="evenodd" fill="rgb(205, 205, 205)" d="M111.375,20.000 L92.625,20.000 C92.280,20.000 92.000,19.720 92.000,19.375 L92.000,5.625 C92.000,5.280 92.280,5.000 92.625,5.000 L94.500,5.000 L94.500,3.125 C94.500,2.780 94.780,2.500 95.125,2.500 L97.000,2.500 L97.000,0.625 C97.000,0.280 97.280,-0.000 97.625,-0.000 L106.375,-0.000 C106.720,-0.000 107.000,0.280 107.000,0.625 L107.000,2.500 L108.875,2.500 C109.220,2.500 109.500,2.780 109.500,3.125 L109.500,5.000 L111.375,5.000 C111.720,5.000 112.000,5.280 112.000,5.625 L112.000,19.375 C112.000,19.720 111.720,20.000 111.375,20.000 ZM105.750,1.250 L98.250,1.250 L98.250,2.500 L105.750,2.500 L105.750,1.250 ZM108.250,3.750 L95.750,3.750 L95.750,5.000 L108.250,5.000 L108.250,3.750 ZM110.750,6.250 L93.250,6.250 L93.250,18.750 L110.750,18.750 L110.750,6.250 ZM100.750,13.750 C101.211,13.750 101.632,13.846 102.000,14.002 L102.000,8.125 C102.000,8.104 102.010,8.086 102.012,8.066 C102.014,8.047 102.007,8.030 102.011,8.010 C102.015,7.987 102.029,7.971 102.035,7.950 C102.049,7.907 102.064,7.867 102.085,7.829 C102.102,7.796 102.122,7.767 102.145,7.739 C102.174,7.704 102.204,7.674 102.239,7.645 C102.265,7.624 102.292,7.605 102.324,7.589 C102.362,7.566 102.401,7.550 102.444,7.536 C102.481,7.525 102.517,7.519 102.556,7.514 C102.580,7.511 102.601,7.500 102.625,7.500 C102.646,7.500 102.664,7.510 102.684,7.511 C102.702,7.512 102.721,7.506 102.740,7.510 C103.781,7.705 105.750,8.591 105.750,10.546 C105.750,10.891 105.470,11.171 105.125,11.171 C104.780,11.171 104.500,10.891 104.500,10.546 C104.500,9.710 103.816,9.239 103.250,8.987 L103.250,15.625 C103.250,16.676 102.151,17.500 100.750,17.500 C99.349,17.500 98.250,16.676 98.250,15.625 C98.250,14.574 99.349,13.750 100.750,13.750 ZM100.750,16.250 C101.502,16.250 102.000,15.874 102.000,15.625 C102.000,15.376 101.502,15.000 100.750,15.000 C99.997,15.000 99.500,15.376 99.500,15.625 C99.500,15.874 99.997,16.250 100.750,16.250 Z"/>
</svg>