 <svg 
 xmlns="http://www.w3.org/2000/svg"
 xmlns:xlink="http://www.w3.org/1999/xlink"
 width="88px" height="20px">
<path xmlns="http://www.w3.org/2000/svg" fill-rule="evenodd" fill="rgb(205, 205, 205)" d="M71.200,16.130 L71.200,18.750 L69.250,18.750 C68.891,18.750 68.600,19.031 68.600,19.375 C68.600,19.719 68.891,20.000 69.250,20.000 L75.750,20.000 C76.108,20.000 76.400,19.719 76.400,19.375 C76.400,19.031 76.108,18.750 75.750,18.750 L73.800,18.750 L73.800,16.123 C76.508,15.608 79.000,13.501 79.000,10.000 L79.000,8.125 C79.000,7.780 78.708,7.500 78.350,7.500 C77.992,7.500 77.700,7.780 77.700,8.125 L77.700,10.000 C77.700,13.282 75.082,15.000 72.500,15.000 C69.995,15.000 67.300,13.435 67.300,10.000 L67.300,8.125 C67.300,7.780 67.009,7.500 66.650,7.500 C66.291,7.500 66.000,7.780 66.000,8.125 L66.000,10.000 C66.000,13.550 68.448,15.632 71.200,16.130 ZM72.500,13.750 C74.650,13.750 76.400,12.068 76.400,10.000 L76.400,3.750 C76.400,1.683 74.650,-0.000 72.500,-0.000 C70.350,-0.000 68.600,1.683 68.600,3.750 L68.600,10.000 C68.600,12.068 70.350,13.750 72.500,13.750 ZM69.900,3.750 C69.900,2.369 71.063,1.250 72.500,1.250 C73.937,1.250 75.100,2.369 75.100,3.750 L75.100,10.000 C75.100,11.382 73.937,12.500 72.500,12.500 C71.063,12.500 69.900,11.382 69.900,10.000 L69.900,3.750 Z"/>
</svg>