 <svg 
 xmlns="http://www.w3.org/2000/svg"
 xmlns:xlink="http://www.w3.org/1999/xlink"
 width="586px" height="50px">
<path xmlns="http://www.w3.org/2000/svg" fill-rule="evenodd" fill="rgb(205, 205, 205)" d="M172.004,10.095 C172.004,7.400 170.964,4.864 169.076,2.959 C167.188,1.054 164.675,0.004 162.004,0.004 C159.333,0.004 156.820,1.054 154.932,2.959 C153.044,4.864 152.004,7.400 152.004,10.095 L152.004,14.873 C152.004,17.572 154.183,19.771 156.858,19.771 C157.179,19.771 157.436,19.512 157.436,19.188 L157.436,10.561 C157.436,10.238 157.179,9.978 156.858,9.978 C155.377,9.978 154.050,10.648 153.160,11.706 L153.160,10.095 C153.160,5.175 157.128,1.171 162.004,1.171 C166.880,1.171 170.848,5.175 170.848,10.095 C170.848,10.134 170.852,10.173 170.861,10.212 C170.852,10.250 170.848,10.289 170.848,10.328 L170.848,11.939 C169.958,10.881 168.631,10.212 167.150,10.212 C166.828,10.212 166.572,10.471 166.572,10.795 L166.572,19.421 C166.572,19.745 166.828,20.004 167.150,20.004 C169.825,20.004 172.004,17.806 172.004,15.106 L172.004,10.328 C172.004,10.289 172.000,10.250 171.991,10.212 C172.000,10.173 172.004,10.134 172.004,10.095 ZM156.276,11.188 L156.276,18.557 C154.512,18.276 153.155,16.730 153.155,14.873 C153.160,13.015 154.512,11.469 156.276,11.188 ZM167.732,18.790 L167.732,11.421 C169.495,11.702 170.852,13.248 170.852,15.106 C170.848,16.968 169.495,18.510 167.732,18.790 Z"/>
</svg>