 <svg 
 xmlns="http://www.w3.org/2000/svg"
 xmlns:xlink="http://www.w3.org/1999/xlink"
 width="30px" height="20px">
<path xmlns="http://www.w3.org/2000/svg" fill-rule="evenodd" fill="rgb(205, 205, 205)" d="M22.879,8.710 C22.763,8.866 22.581,8.948 22.397,8.948 C22.275,8.948 22.151,8.912 22.045,8.836 L11.504,1.299 L0.962,8.836 C0.696,9.026 0.323,8.969 0.128,8.710 C-0.067,8.450 -0.009,8.085 0.257,7.895 L11.151,0.106 C11.361,-0.045 11.646,-0.045 11.856,0.106 L22.750,7.895 C23.017,8.085 23.074,8.450 22.879,8.710 ZM3.144,8.968 C3.473,8.968 3.741,9.229 3.741,9.551 L3.741,18.833 L8.518,18.833 L8.518,13.766 C8.518,12.158 9.857,10.850 11.504,10.850 C13.150,10.850 14.490,12.158 14.490,13.766 L14.490,18.833 L19.267,18.833 L19.267,9.551 C19.267,9.229 19.534,8.968 19.864,8.968 C20.194,8.968 20.461,9.229 20.461,9.551 L20.461,19.416 C20.461,19.738 20.194,19.999 19.864,19.999 L13.893,19.999 C13.578,19.999 13.321,19.762 13.298,19.461 C13.296,19.448 13.295,19.433 13.295,19.416 L13.295,13.766 C13.295,12.801 12.492,12.017 11.504,12.017 C10.516,12.017 9.712,12.801 9.712,13.766 L9.712,19.416 C9.712,19.433 9.711,19.448 9.710,19.461 C9.686,19.762 9.429,19.999 9.115,19.999 L3.144,19.999 C2.814,19.999 2.546,19.738 2.546,19.416 L2.546,9.551 C2.546,9.229 2.814,8.968 3.144,8.968 Z"/>
</svg>