 <svg 
 xmlns="http://www.w3.org/2000/svg"
 xmlns:xlink="http://www.w3.org/1999/xlink"
 width="55px" height="20px">
 <path
      xmlns="http://www.w3.org/2000/svg"
      fill="#CDCDCD"
      fillRule="evenodd"
      d="M52.312 17.286h-3.437v2.035a.684.684 0 01-.688.679H35.812a.683.683 0 01-.687-.679v-2.035h-3.438a.683.683 0 01-.687-.679V4.393c0-.375.308-.679.687-.679h3.438V1.679c0-.375.308-.679.687-.679h12.375c.38 0 .688.304.688.679v2.035h3.437c.38 0 .688.304.688.679v12.214a.684.684 0 01-.688.679zM35.125 5.071h-2.75v10.857h2.75V5.071zM47.5 2.357h-11v16.286h11V2.357zm4.125 2.714h-2.75v10.857h2.75V5.071zm-11 6.786c.507 0 .971.105 1.375.274V5.75a.682.682 0 01.815-.666c1.144.211 3.31 1.173 3.31 3.295a.683.683 0 01-.688.678.683.683 0 01-.687-.678c0-.907-.752-1.424-1.375-1.698v7.212c0 1.141-1.207 2.035-2.75 2.035s-2.75-.894-2.75-2.035c0-1.142 1.207-2.036 2.75-2.036zm0 2.714c.839 0 1.375-.401 1.375-.678s-.536-.679-1.375-.679-1.375.402-1.375.679.536.678 1.375.678z">
    </path></svg>