  <svg xmlns="http://www.w3.org/2000/svg" width="16" height="15">
      <path
        fill="#FFF"
        fillRule="evenodd"
        d="M14.545 14.999l-.818-2.25h-3.454l-.818 2.25H8l3.273-9h1.454l3.273 9h-1.455zM12 7.998l-1.182 3.251h2.364L12 7.998zm-5.193-.097l-.022.022 1.848 1.883-.553 1.526-2.262-2.333-3.636 3.75-1.029-1.061 3.698-3.769a13.206 13.206 0 01-2.167-3.42h1.454a11.858 11.858 0 001.68 2.513 11.942 11.942 0 002.306-4.02H0V1.499h5.091v-1.5h1.454v1.5h5.091v1.504H9.505a13.254 13.254 0 01-2.698 4.898z"
      ></path>
    </svg>