
     <svg xmlns="http://www.w3.org/2000/svg" width="40" height="40">
      <path
        fill="#FFFFFF"
        fillRule="evenodd"
        d="M39.32 25.169a19.867 19.867 0 01-9.319 12.143 19.89 19.89 0 01-15.178 1.997 19.865 19.865 0 01-12.145-9.317A19.86 19.86 0 01.68 14.819 19.864 19.864 0 019.999 2.676 19.871 19.871 0 0125.177.679a19.868 19.868 0 0112.145 9.317 19.86 19.86 0 011.998 15.173zm-3.802-14.132A17.798 17.798 0 0024.637 2.69 17.817 17.817 0 0011.04 4.48a17.796 17.796 0 00-8.349 10.877 17.797 17.797 0 001.79 13.594 17.807 17.807 0 0010.881 8.347 17.805 17.805 0 0013.597-1.79 17.795 17.795 0 008.349-10.878 17.792 17.792 0 00-1.79-13.593zm-4.045 1.136a1.04 1.04 0 01-.825-.403 13.602 13.602 0 00-8.851-5.109 1.041 1.041 0 11.282-2.063 15.701 15.701 0 0110.216 5.897 1.04 1.04 0 01-.822 1.678zm-.786 7.821c0 .788-.408 1.493-1.09 1.887l-12.861 7.423a2.172 2.172 0 01-1.09.295c-.374 0-.748-.098-1.089-.295a2.155 2.155 0 01-1.09-1.887V12.571c0-.788.407-1.493 1.09-1.887a2.158 2.158 0 012.18 0l12.86 7.423a2.156 2.156 0 011.09 1.887zm-2.132-.083l-12.86-7.424c-.01-.005-.026-.014-.047-.014a.109.109 0 00-.05.014c-.048.029-.048.066-.048.084v14.846c0 .019 0 .056.048.084.048.028.081.009.097 0l12.86-7.423a.087.087 0 00.049-.084c0-.056-.033-.074-.049-.083z"
      ></path>
    </svg>


