   <svg xmlns="http://www.w3.org/2000/svg" width="14" height="14">
      <path
        fill="#FFF"
        fillRule="evenodd"
        d="M13.608 13.607a1.31 1.31 0 01-1.853 0L8.547 10.4A6.17 6.17 0 0010.4 8.546l3.208 3.208a1.31 1.31 0 010 1.853zm-8.354-3.111A5.243 5.243 0 115.253.011a5.243 5.243 0 01.001 10.485zm0-9.175a3.936 3.936 0 00-3.932 3.932 3.936 3.936 0 003.932 3.933 3.937 3.937 0 003.932-3.933 3.937 3.937 0 00-3.932-3.932zM3.069 5.253h-.874a3.063 3.063 0 013.059-3.058v.874c-1.205 0-2.185.98-2.185 2.184z"
      ></path>
    </svg>