 <svg xmlns="http://www.w3.org/2000/svg" width="20" height="16">
      <path
        fill="#FFF"
        fillRule="evenodd"
        d="M17.406 14.872a.44.44 0 01-.629 0 .459.459 0 010-.641 8.124 8.124 0 002.332-5.735c0-2.17-.828-4.207-2.332-5.736a.458.458 0 010-.64.439.439 0 01.629 0A9.03 9.03 0 0120 8.496a9.032 9.032 0 01-2.594 6.376zm-2.76-2.354a.44.44 0 01-.314-.132.459.459 0 010-.641 4.602 4.602 0 001.321-3.249 4.606 4.606 0 00-1.321-3.25.458.458 0 010-.64.439.439 0 01.629 0 5.508 5.508 0 011.583 3.89 5.51 5.51 0 01-1.583 3.89.442.442 0 01-.315.132zm-2.948 3.332a1.236 1.236 0 01-1.28-.063l-5.359-3.633H3.027c-.521 0-.949-.409-.992-.928h-.287C.784 11.226 0 10.429 0 9.448V7.543c0-.98.784-1.778 1.748-1.778h.287c.043-.519.471-.928.992-.928h2.032l5.359-3.632c.384-.26.874-.284 1.28-.063.406.221.659.649.659 1.118v12.472c0 .468-.253.896-.659 1.118zM2.031 6.771h-.283a.767.767 0 00-.759.772v1.905c0 .426.341.772.759.772h.283V6.771zm2.683-.928H3.027c-.004 0-.007.004-.007.007v5.291c0 .004.004.007.007.007h1.687V5.843zm6.653-3.583a.256.256 0 00-.136-.231.247.247 0 00-.264.013L5.703 5.61v5.772l5.264 3.568a.258.258 0 00.4-.218V2.26z"
      ></path>
    </svg>