 <svg 
 xmlns="http://www.w3.org/2000/svg"
 xmlns:xlink="http://www.w3.org/1999/xlink"
 width="586px" height="50px">
<path xmlns="http://www.w3.org/2000/svg" fill-rule="evenodd" fill="rgb(205, 205, 205)" d="M198.847,17.579 C198.569,17.803 198.163,17.757 197.941,17.475 C197.719,17.193 197.765,16.783 198.044,16.558 C200.374,14.679 201.711,11.872 201.711,8.858 C201.711,5.844 200.374,3.038 198.044,1.158 C197.765,0.933 197.719,0.523 197.941,0.241 C198.163,-0.041 198.569,-0.087 198.847,0.138 C201.486,2.266 203.000,5.445 203.000,8.858 C203.000,12.272 201.486,15.450 198.847,17.579 ZM196.698,14.857 C196.420,15.081 196.014,15.035 195.792,14.752 C195.571,14.470 195.617,14.060 195.896,13.836 C197.407,12.619 198.273,10.805 198.273,8.858 C198.273,6.911 197.407,5.097 195.896,3.881 C195.617,3.656 195.571,3.246 195.792,2.964 C196.014,2.682 196.419,2.635 196.698,2.860 C198.518,4.325 199.562,6.511 199.562,8.858 C199.562,11.205 198.518,13.391 196.698,14.857 ZM192.644,12.063 L192.644,19.348 C192.644,19.708 192.356,20.000 192.000,20.000 C191.644,20.000 191.355,19.708 191.355,19.348 L191.355,12.063 C189.886,11.760 188.777,10.442 188.777,8.867 C188.777,7.068 190.223,5.605 192.000,5.605 C193.777,5.605 195.223,7.068 195.223,8.867 C195.223,10.442 194.114,11.760 192.644,12.063 ZM192.000,6.910 C190.934,6.910 190.066,7.788 190.066,8.867 C190.066,9.946 190.934,10.824 192.000,10.824 C193.066,10.824 193.933,9.946 193.933,8.867 C193.933,7.788 193.066,6.910 192.000,6.910 ZM188.207,14.752 C187.986,15.034 187.580,15.081 187.302,14.857 C185.481,13.391 184.437,11.205 184.437,8.858 C184.437,6.511 185.481,4.325 187.302,2.859 C187.580,2.635 187.986,2.682 188.207,2.964 C188.429,3.246 188.383,3.656 188.104,3.881 C186.593,5.097 185.726,6.911 185.726,8.858 C185.726,10.805 186.593,12.619 188.104,13.836 C188.383,14.060 188.429,14.470 188.207,14.752 ZM182.289,8.858 C182.289,11.872 183.626,14.679 185.956,16.559 C186.235,16.783 186.281,17.194 186.059,17.475 C185.837,17.757 185.431,17.803 185.153,17.579 C182.514,15.450 181.000,12.272 181.000,8.858 C181.000,5.445 182.514,2.266 185.153,0.138 C185.431,-0.087 185.837,-0.041 186.059,0.241 C186.280,0.523 186.235,0.933 185.956,1.158 C183.626,3.037 182.289,5.844 182.289,8.858 Z"/>
</svg>