<svg xmlns="http://www.w3.org/2000/svg" width="22" height="22" viewBox="0 0 22 22">
  <path id="Search_Icon_22" data-name="Search Icon 22" d="M18.367,19.4l6.417,6.3.917-.9-6.417-6.3a8.838,8.838,0,0,0-.306-12.2,9.014,9.014,0,0,0-6.417-2.6A8.383,8.383,0,0,0,6.348,6.3a8.818,8.818,0,0,0,0,12.6,9.19,9.19,0,0,0,6.417,2.6A9.92,9.92,0,0,0,18.367,19.4Zm-11-1.7a7.154,7.154,0,0,1,0-10.4,7.475,7.475,0,0,1,10.593,0,7.211,7.211,0,0,1,0,10.4A7.536,7.536,0,0,1,7.367,17.7Z" transform="translate(-3.7 -3.7)" fill="#fff"/>
</svg>
