 <svg 
 xmlns="http://www.w3.org/2000/svg"
 xmlns:xlink="http://www.w3.org/1999/xlink"
 width="150px" height="20px">
<path xmlns="http://www.w3.org/2000/svg" fill-rule="evenodd" fill="rgb(205, 205, 205)" d="M143.999,5.920 C143.999,5.929 143.999,5.939 143.998,5.948 C143.997,5.954 143.997,5.960 143.996,5.966 C143.995,5.974 143.994,5.982 143.992,5.990 C143.991,5.997 143.990,6.003 143.988,6.009 C143.987,6.017 143.985,6.024 143.983,6.031 C143.981,6.038 143.979,6.044 143.977,6.050 C143.975,6.058 143.972,6.065 143.970,6.072 C143.967,6.078 143.965,6.084 143.962,6.090 C143.959,6.097 143.956,6.104 143.952,6.111 C143.950,6.117 143.947,6.122 143.944,6.128 C143.940,6.135 143.935,6.143 143.931,6.150 C143.928,6.155 143.925,6.159 143.922,6.164 C143.915,6.175 143.907,6.186 143.898,6.197 L143.897,6.198 C143.897,6.198 143.897,6.198 143.897,6.198 L132.847,19.834 C132.846,19.835 132.845,19.836 132.844,19.837 C132.835,19.849 132.825,19.860 132.814,19.870 C132.813,19.871 132.811,19.873 132.810,19.874 C132.801,19.883 132.791,19.892 132.780,19.900 C132.777,19.902 132.774,19.905 132.771,19.908 C132.760,19.916 132.749,19.923 132.738,19.931 C132.737,19.931 132.736,19.932 132.734,19.933 C132.722,19.941 132.709,19.948 132.696,19.954 C132.693,19.956 132.689,19.957 132.686,19.959 C132.675,19.964 132.664,19.969 132.652,19.973 C132.649,19.974 132.647,19.975 132.644,19.976 C132.630,19.981 132.616,19.985 132.601,19.988 C132.598,19.989 132.596,19.989 132.593,19.990 C132.581,19.992 132.569,19.994 132.557,19.996 C132.553,19.996 132.549,19.997 132.545,19.997 C132.530,19.999 132.515,20.000 132.500,20.000 C132.485,20.000 132.470,19.999 132.455,19.997 C132.451,19.997 132.447,19.996 132.443,19.996 C132.431,19.994 132.419,19.992 132.407,19.990 C132.404,19.989 132.401,19.989 132.398,19.988 C132.384,19.985 132.370,19.981 132.356,19.976 C132.353,19.975 132.350,19.974 132.347,19.973 C132.336,19.969 132.325,19.964 132.314,19.959 C132.310,19.957 132.307,19.956 132.304,19.954 C132.290,19.948 132.277,19.941 132.265,19.933 C132.264,19.932 132.263,19.931 132.261,19.931 C132.250,19.923 132.239,19.916 132.229,19.908 C132.225,19.905 132.222,19.902 132.219,19.900 C132.209,19.892 132.199,19.883 132.189,19.874 C132.188,19.873 132.187,19.871 132.186,19.870 C132.175,19.860 132.165,19.849 132.155,19.837 C132.154,19.836 132.153,19.835 132.152,19.834 L121.103,6.198 C121.102,6.198 121.102,6.198 121.102,6.198 L121.102,6.197 C121.093,6.186 121.085,6.175 121.077,6.164 C121.074,6.159 121.072,6.155 121.069,6.150 C121.064,6.143 121.059,6.135 121.055,6.128 C121.052,6.122 121.050,6.117 121.047,6.111 C121.044,6.104 121.040,6.097 121.037,6.090 C121.035,6.084 121.032,6.078 121.030,6.072 C121.027,6.064 121.025,6.057 121.022,6.050 C121.020,6.044 121.019,6.038 121.017,6.031 C121.015,6.024 121.013,6.017 121.011,6.009 C121.010,6.003 121.009,5.997 121.007,5.990 C121.006,5.982 121.005,5.974 121.004,5.966 C121.003,5.960 121.002,5.954 121.002,5.948 C121.001,5.939 121.001,5.930 121.000,5.920 C121.000,5.916 121.000,5.913 121.000,5.909 C121.000,5.908 121.000,5.907 121.000,5.905 C121.000,5.893 121.001,5.881 121.002,5.869 C121.002,5.867 121.002,5.864 121.002,5.862 C121.004,5.848 121.006,5.834 121.009,5.820 C121.010,5.815 121.011,5.809 121.013,5.803 C121.014,5.795 121.016,5.787 121.019,5.780 C121.021,5.773 121.023,5.767 121.025,5.761 C121.027,5.754 121.030,5.747 121.032,5.740 C121.035,5.733 121.038,5.727 121.040,5.721 C121.043,5.714 121.047,5.708 121.050,5.701 C121.053,5.695 121.056,5.689 121.059,5.684 C121.063,5.677 121.067,5.671 121.071,5.664 C121.074,5.659 121.078,5.653 121.082,5.648 C121.086,5.642 121.090,5.636 121.095,5.630 C121.099,5.625 121.103,5.619 121.107,5.614 C121.109,5.612 121.111,5.610 121.112,5.608 L125.874,0.153 C125.875,0.152 125.877,0.151 125.878,0.150 C125.885,0.142 125.893,0.134 125.901,0.126 C125.904,0.123 125.907,0.120 125.910,0.117 C125.919,0.108 125.929,0.100 125.940,0.092 C125.941,0.091 125.943,0.089 125.945,0.088 C125.958,0.079 125.970,0.070 125.984,0.062 C125.984,0.062 125.984,0.062 125.984,0.062 C126.010,0.047 126.039,0.033 126.069,0.023 C126.069,0.023 126.069,0.023 126.069,0.023 C126.074,0.022 126.079,0.020 126.084,0.019 C126.094,0.016 126.104,0.013 126.115,0.011 C126.119,0.010 126.123,0.009 126.127,0.008 C126.138,0.006 126.150,0.004 126.161,0.003 C126.165,0.002 126.169,0.002 126.173,0.002 C126.184,0.001 126.196,0.000 126.208,0.000 C126.209,0.000 126.210,-0.000 126.211,-0.000 L138.789,-0.000 C138.790,-0.000 138.791,0.000 138.792,0.000 C138.804,0.000 138.816,0.001 138.828,0.002 C138.831,0.002 138.835,0.002 138.839,0.003 C138.850,0.004 138.862,0.006 138.874,0.009 C138.878,0.009 138.881,0.010 138.885,0.010 C138.896,0.013 138.906,0.016 138.917,0.019 C138.921,0.021 138.926,0.022 138.930,0.023 C138.931,0.023 138.931,0.023 138.931,0.023 C138.961,0.033 138.989,0.046 139.016,0.062 C139.016,0.062 139.016,0.062 139.016,0.062 C139.029,0.070 139.042,0.079 139.054,0.088 C139.056,0.089 139.058,0.091 139.060,0.092 C139.071,0.100 139.080,0.108 139.090,0.117 C139.093,0.120 139.096,0.123 139.099,0.126 C139.107,0.134 139.115,0.142 139.122,0.150 C139.123,0.151 139.125,0.152 139.126,0.153 L143.887,5.608 C143.889,5.610 143.891,5.612 143.892,5.614 C143.897,5.619 143.901,5.624 143.905,5.630 C143.909,5.636 143.914,5.642 143.918,5.648 C143.922,5.653 143.925,5.659 143.929,5.664 C143.933,5.671 143.937,5.677 143.941,5.684 C143.944,5.689 143.947,5.695 143.950,5.701 C143.953,5.708 143.956,5.714 143.960,5.721 C143.962,5.727 143.965,5.733 143.967,5.740 C143.970,5.747 143.973,5.754 143.975,5.761 C143.977,5.767 143.979,5.773 143.981,5.780 C143.983,5.787 143.985,5.795 143.987,5.803 C143.989,5.809 143.990,5.814 143.991,5.820 C143.994,5.834 143.996,5.848 143.997,5.862 C143.998,5.864 143.998,5.867 143.998,5.869 C143.999,5.881 144.000,5.893 144.000,5.905 C144.000,5.907 144.000,5.908 144.000,5.909 C144.000,5.913 143.999,5.916 143.999,5.920 ZM131.304,17.353 L127.684,6.364 L122.398,6.364 L131.304,17.353 ZM126.031,1.347 L122.445,5.454 L127.384,5.454 L126.031,1.347 ZM126.834,0.909 L128.179,4.991 L131.541,0.909 L126.834,0.909 ZM128.967,5.454 L130.703,5.454 C130.951,5.454 131.152,5.658 131.152,5.909 C131.152,6.160 130.951,6.364 130.703,6.364 L128.631,6.364 L132.500,18.108 L136.369,6.364 L134.254,6.364 C134.006,6.364 133.805,6.160 133.805,5.909 C133.805,5.658 134.006,5.454 134.254,5.454 L136.033,5.454 L132.500,1.164 L128.967,5.454 ZM133.459,0.909 L136.821,4.991 L138.166,0.909 L133.459,0.909 ZM138.968,1.347 L137.615,5.454 L142.554,5.454 L138.968,1.347 ZM137.316,6.364 L133.696,17.353 L142.601,6.364 L137.316,6.364 ZM132.500,6.364 C132.252,6.364 132.051,6.160 132.051,5.909 C132.051,5.658 132.252,5.454 132.500,5.454 C132.748,5.454 132.949,5.658 132.949,5.909 C132.949,6.160 132.748,6.364 132.500,6.364 Z"/>
</svg>